{"title":"Bikie.Wars.Brothers.in.Arms.S01E01.480p.x264-mSD","magnet":"magnet:?xt=urn:btih:74cadeff348e2558a119f996bce14f6b8d336cac&dn=Bikie.Wars.Brothers.in.Arms.S01E01.480p.x264-mSD&tr=udp%3A%2F%2Ftracker.leechers-paradise.org%3A6969&tr=udp%3A%2F%2Fzer0day.ch%3A1337&tr=udp%3A%2F%2Fopen.demonii.com%3A1337&tr=udp%3A%2F%2Ftracker.coppersurfer.tk%3A6969&tr=udp%3A%2F%2Fexodus.desync.com%3A6969","uploader":"Priest82","categoryP":"video","categoryS":"tv_shows","size":"300181120","seeders":"0","leechers":"0","description":"Complete name                            : Bikie.Wars.Brothers.in.Arms.S01E01.480p.x264-mSD.mkv Format                                   : Matroska Format version                           : Version 4 / Version 2 File size                                : 286 MiB Duration                                 : 47 min 52 s Overall bit rate                         : 836 kb/s Writing application                      : Lavf57.70.100 Writing library                          : Lavf57.70.100 ErrorDetectionType                       : Per level 1 Video ID                                       : 1 Format                                   : AVC Format/Info                              : Advanced Video Codec Format profile                           : <a class=\"__cf_email__\" href=\"/cdn-cgi/l/email-protection\" data-cfemail=\"6129080609212d52\">[email&#xA0;protected]</a><script data-cfhash=\"f9e31\" type=\"text/javascript\">/* <![CDATA[ */!function(t,e,r,n,c,a,p){try{t=document.currentScript||function(){for(t=document.getElementsByTagName('script'),e=t.length;e--;)if(t[e].getAttribute('data-cfhash'))return t[e]}();if(t&&(c=t.previousSibling)){p=t.parentNode;if(a=c.getAttribute('data-cfemail')){for(e='',r='0x'+a.substr(0,2)|0,n=2;a.length-n;n+=2)e+='%'+('0'+('0x'+a.substr(n,2)^r).toString(16)).slice(-2);p.replaceChild(document.createTextNode(decodeURIComponent(e)),c)}p.removeChild(t)}}catch(u){}}()/* ]]> */</script> Format settings, CABAC                   : Yes Format settings, ReFrames                : 4 frames Codec ID                                 : V_MPEG4/ISO/AVC Duration                                 : 47 min 52 s Bit rate                                 : 691 kb/s Width                                    : 640 pixels Height                                   : 480 pixels Display aspect ratio                     : 16:9 Frame rate mode                          : Constant Frame rate                               : 23.976 (24000/1001) FPS Color space                              : YUV Chroma subsampling                       : 4:2:0 Bit depth                                : 8 bits Scan type                                : Progressive Bits/(Pixel*Frame)                       : 0.094 Stream size                              : 237 MiB (83%) Writing library                          : x264 core 148 r2762 90a61ec Default                                  : Yes Forced                                   : No Statistics Tags Issue                    : mkvmerge v12.0.0 (&apos;Trust / Lust&apos;) 64bit 2017-06-12 07:15:20 / Lavf57.70.100  FromStats_BitRate                        : 2549919 FromStats_Duration                       : 00:47:52.353000000 FromStats_FrameCount                     : 68865 FromStats_StreamSize                     : 915499414 Audio ID                                       : 2 Format                                   : MPEG Audio Format version                           : Version 1 Format profile                           : Layer 3 Mode                                     : Joint stereo Mode extension                           : MS Stereo Codec ID                                 : A_MPEG/L3 Codec ID/Hint                            : MP3 Duration                                 : 47 min 52 s Bit rate mode                            : Constant Bit rate                                 : 128 kb/s Channel(s)                               : 2 channels Sampling rate                            : 44.1 kHz Compression mode                         : Lossy Delay relative to video                  : -108 ms Stream size                              : 43.8 MiB (15%) Writing library                          : LAME3.99.5 Language                                 : English Default                                  : Yes Forced                                   : No Statistics Tags Issue                    : mkvmerge v12.0.0 (&apos;Trust / Lust&apos;) 64bit 2017-06-12 07:15:20 / Lavf57.70.100  FromStats_BitRate                        : 128000 FromStats_Duration                       : 00:47:52.318000000 FromStats_FrameCount                     : 123700 FromStats_StreamSize                     : 45956935","last_updated":"2017-06-13T12:00:33.735Z","parsed":{"xt":"urn:btih:74cadeff348e2558a119f996bce14f6b8d336cac","dn":"Bikie.Wars.Brothers.in.Arms.S01E01.480p.x264-mSD","tr":["udp://exodus.desync.com:6969","udp://open.demonii.com:1337","udp://tracker.coppersurfer.tk:6969","udp://tracker.leechers-paradise.org:6969","udp://zer0day.ch:1337"],"infoHash":"74cadeff348e2558a119f996bce14f6b8d336cac","infoHashBuffer":{"type":"Buffer","data":[116,202,222,255,52,142,37,88,161,25,249,150,188,225,79,107,141,51,108,172]},"name":"Bikie.Wars.Brothers.in.Arms.S01E01.480p.x264-mSD","announce":["udp://exodus.desync.com:6969","udp://open.demonii.com:1337","udp://tracker.coppersurfer.tk:6969","udp://tracker.leechers-paradise.org:6969","udp://zer0day.ch:1337"],"urlList":[]}}